<?xml version="1.0" standalone="no"?>
<!DOCTYPE svg PUBLIC "-//W3C//DTD SVG 20010904//EN"
 "http://www.w3.org/TR/2001/REC-SVG-20010904/DTD/svg10.dtd">
<svg version="1.0" xmlns="http://www.w3.org/2000/svg"
 width="340.000000pt" height="308.000000pt" viewBox="0 0 340.000000 308.000000"
 preserveAspectRatio="xMidYMid meet">
<metadata>
Created by potrace 1.16, written by Peter Selinger 2001-2019
</metadata>
<g transform="translate(0.000000,308.000000) scale(0.100000,-0.100000)"
fill="#000000" stroke="none">
<path d="M1570 2839 c-467 -41 -486 -45 -542 -104 -47 -49 -60 -112 -48 -234
12 -124 35 -180 92 -221 22 -16 58 -32 81 -35 35 -6 418 23 872 66 130 12 184
34 225 91 37 51 45 105 32 227 -15 144 -55 208 -151 240 -46 15 -63 14 -561
-30z m426 -40 c33 -12 93 -68 111 -103 9 -18 16 -55 16 -87 0 -189 -232 -281
-367 -145 -162 162 21 416 240 335z m-520 -84 c25 -14 57 -45 72 -67 23 -35
27 -52 27 -109 0 -58 -4 -73 -30 -111 -38 -54 -119 -98 -182 -98 -117 0 -213
95 -213 210 0 163 181 260 326 175z"/>
<path d="M1829 2707 c-68 -45 -71 -132 -8 -193 27 -25 38 -29 90 -29 57 0 63
2 95 37 27 30 34 46 34 78 0 82 -49 130 -133 130 -29 0 -55 -8 -78 -23z"/>
<path d="M1305 2651 c-98 -45 -99 -178 -2 -224 45 -22 72 -21 123 2 106 48 89
199 -25 231 -47 13 -49 13 -96 -9z"/>
<path d="M526 2225 c-27 -13 -57 -26 -67 -28 -17 -5 -17 -8 2 -78 27 -95 84
-230 124 -294 82 -129 213 -194 492 -244 l102 -18 6 56 c3 31 7 65 8 75 2 17
-9 21 -78 33 -108 18 -244 57 -305 88 -82 42 -139 135 -200 333 -17 56 -32
102 -33 101 -1 0 -24 -11 -51 -24z"/>
<path d="M1839 2186 c-2 -3 -33 -6 -68 -7 l-63 -2 8 -36 c11 -47 11 -113 0
-178 l-8 -53 75 0 c86 0 81 -6 93 111 9 88 -14 188 -37 165z"/>
<path d="M2762 2039 c-43 -133 -88 -224 -129 -259 -38 -33 -127 -64 -243 -82
-90 -14 -88 -10 -73 -113 l6 -47 59 6 c83 10 199 41 269 72 71 32 136 98 178
181 30 61 107 272 100 276 -8 4 -122 62 -128 65 -3 1 -21 -43 -39 -99z"/>
<path d="M1402 1778 c-12 -15 -46 -343 -37 -358 8 -13 771 -14 780 0 8 14 -26
343 -38 358 -7 9 -90 12 -352 12 -262 0 -345 -3 -353 -12z m668 -45 c0 -5 7
-66 15 -137 8 -71 12 -133 9 -137 -7 -12 -671 -11 -679 0 -5 9 8 154 21 244
l6 37 314 0 c173 0 314 -3 314 -7z"/>
<path d="M1409 603 c0 -60 -2 -121 -4 -136 -3 -22 0 -27 13 -23 57 15 75 15
101 2 28 -15 29 -15 35 16 3 17 6 79 6 139 l0 109 -75 0 -75 0 -1 -107z"/>
<path d="M1907 588 c6 -68 12 -131 12 -141 1 -16 3 -17 33 -1 21 11 46 15 76
11 l44 -5 -6 42 c-3 22 -8 80 -12 129 l-7 87 -76 0 -77 0 13 -122z"/>
</g>
</svg>
